<svg width="27" height="21" viewBox="0 0 27 21" fill="none" xmlns="http://www.w3.org/2000/svg">
<path d="M14.0801 13.6068L1.3901 5.53112C0.734048 5.09726 0.274624 4.4231 0.11076 3.65382C-0.0531036 2.88454 0.0917016 2.08168 0.513993 1.41812C0.936285 0.754556 1.60228 0.28338 2.36857 0.106052C3.13486 -0.0712762 3.94014 0.0594277 4.611 0.470019L13.921 6.39432L22.2801 0.542819C22.9323 0.100877 23.7321 -0.0667921 24.5069 0.0760261C25.2816 0.218844 25.9691 0.660687 26.4209 1.30612C26.8726 1.95156 27.0523 2.74878 26.9212 3.52561C26.7901 4.30243 26.3586 4.9965 25.7201 5.45792L14.0801 13.6068Z" fill="#EA4435"/>
<path d="M25 21.0007H21V3.00067C21 2.20502 21.3161 1.44196 21.8787 0.879351C22.4413 0.316742 23.2044 0.000671387 24 0.000671387C24.7956 0.000671387 25.5587 0.316742 26.1213 0.879351C26.6839 1.44196 27 2.20502 27 3.00067L27 19.0007C27 19.5311 26.7893 20.0398 26.4142 20.4149C26.0391 20.79 25.5304 21.0007 25 21.0007Z" fill="#00AC47"/>
<path d="M26.9561 2.56557C26.9473 2.50557 26.948 2.44427 26.9355 2.38437C26.9163 2.29257 26.8806 2.20777 26.8532 2.11917C26.8267 2.01776 26.7947 1.91785 26.7574 1.81987C26.7374 1.77237 26.7066 1.73067 26.6839 1.68447C26.6217 1.55117 26.5497 1.42265 26.4685 1.29997C26.4285 1.24187 26.3785 1.19237 26.3343 1.13737C26.2585 1.03741 26.1765 0.94226 26.0888 0.852471C26.0223 0.787771 25.9465 0.733671 25.8742 0.675371C25.7974 0.609489 25.7173 0.54751 25.6342 0.489671C25.5549 0.437871 25.4681 0.397971 25.3842 0.353771C25.2958 0.307671 25.2092 0.257471 25.1172 0.220671C25.0283 0.184871 24.9335 0.162071 24.8406 0.134771C24.7477 0.107471 24.6553 0.0747713 24.5599 0.0570713C24.4417 0.0380857 24.3225 0.0260652 24.2029 0.0210715C24.127 0.0157715 24.0518 0.00247141 23.9756 0.00307141C23.8342 0.00719434 23.6932 0.021397 23.5537 0.0455714C23.4974 0.0539714 23.4407 0.0532714 23.3848 0.0648714C23.1961 0.122527 23.008 0.181862 22.8203 0.242871C22.7688 0.264871 22.7237 0.297572 22.6738 0.322372C22.166 0.559329 21.7377 0.938294 21.4406 1.41346C21.1436 1.88863 20.9905 2.43967 20.9999 2.99997V8.76197L25.7199 5.45767C26.1834 5.1466 26.5468 4.70786 26.7662 4.19454C26.9855 3.68123 27.0514 3.11534 26.9558 2.56537L26.9561 2.56557Z" fill="#FFBA00"/>
<path d="M3 0C3.79565 0 4.55871 0.316071 5.12132 0.87868C5.68393 1.44129 6 2.20435 6 3V21H2C1.46957 21 0.960859 20.7893 0.585786 20.4142C0.210714 20.0391 0 19.5304 0 19V3C0 2.20435 0.316071 1.44129 0.87868 0.87868C1.44129 0.316071 2.20435 0 3 0Z" fill="#4285F4"/>
<path d="M0.043965 2.5656C0.052765 2.5056 0.0520651 2.4443 0.0645651 2.3844C0.0837651 2.2926 0.119465 2.2078 0.146865 2.1192C0.173427 2.01783 0.205406 1.91795 0.242665 1.82C0.262665 1.7725 0.293465 1.7308 0.316265 1.6846C0.378445 1.55124 0.450443 1.42269 0.531665 1.3C0.571665 1.2419 0.621665 1.1924 0.665865 1.1374C0.741682 1.03744 0.82364 0.94229 0.911265 0.8525C0.977765 0.7878 1.05357 0.7337 1.12596 0.6754C1.20278 0.609492 1.28288 0.547512 1.36597 0.4897C1.44527 0.4379 1.53207 0.398 1.61597 0.3538C1.70267 0.304758 1.79178 0.260101 1.88297 0.22C1.97197 0.1842 2.06677 0.1614 2.15957 0.1341C2.25237 0.1068 2.34486 0.0740999 2.44026 0.0563999C2.55846 0.0374194 2.67766 0.0253989 2.79727 0.0204001C2.87327 0.0151001 2.94836 0.00180002 3.02456 0.00240002C3.16603 0.00651787 3.30702 0.0207206 3.44647 0.0449C3.50277 0.0533 3.55946 0.0526 3.61546 0.0642C3.71226 0.0888643 3.80772 0.118504 3.90147 0.153C3.99573 0.178056 4.08868 0.207827 4.17997 0.2422C4.23137 0.2642 4.27646 0.2969 4.32646 0.3217C4.45609 0.3826 4.58115 0.452783 4.70066 0.5317C5.1013 0.806789 5.42896 1.17526 5.65534 1.6053C5.88173 2.03534 6.00004 2.51401 6.00006 3V8.762L1.28006 5.4579C0.816642 5.14674 0.453281 4.70799 0.233916 4.19471C0.0145506 3.68142 -0.0514253 3.11558 0.043965 2.5656Z" fill="#C52528"/>
</svg>
