<svg width="20" height="20" viewBox="0 0 20 20" fill="none" xmlns="http://www.w3.org/2000/svg">
<path d="M10.3924 11.1112L9.26491 12.2387L9.28116 12.325C9.41866 12.9412 9.21366 13.59 8.75116 14.0512L7.53741 15.265C7.17866 15.6237 6.68366 15.8287 6.16991 15.8287C5.63991 15.8287 5.16116 15.6237 4.80241 15.265L4.75116 15.2137C4.01616 14.4787 4.01616 13.2137 4.75116 12.4787L5.96491 11.265C6.42616 10.8037 7.09241 10.5975 7.74241 10.735L7.82866 10.7512L8.95616 9.62372L8.75116 9.53747C7.41866 8.95622 5.91366 9.22997 4.92241 10.2212L3.67366 11.435C2.30616 12.7675 2.30616 14.9562 3.65741 16.2887L3.70866 16.34C4.37616 17.0075 5.26491 17.3487 6.13616 17.3487C7.00741 17.3487 7.89741 17.0062 8.56366 16.34L9.77741 15.1262C10.7862 14.1175 11.0774 12.58 10.4612 11.2975L10.3937 11.1087L10.3924 11.1112Z" fill="#00AC47"/>
<path d="M16.3414 3.71002L16.2901 3.65877C15.6576 3.01002 14.8201 2.65002 13.8964 2.65002H13.8801C12.9564 2.65002 12.1026 3.00877 11.4526 3.65877L10.2389 4.87252C9.23012 5.88127 8.93887 7.42002 9.55512 8.70127L9.64137 8.89003L10.7689 7.76253L10.7526 7.67627C10.6151 7.06002 10.8039 6.41127 11.2826 5.91502L12.4964 4.70127C13.2314 3.96627 14.4964 3.96627 15.2314 4.70127L15.2826 4.75252C15.6414 5.11127 15.8464 5.59002 15.8464 6.12002C15.8464 6.63252 15.6414 7.12877 15.2826 7.48752L14.0689 8.73627C13.6076 9.19753 12.9414 9.40378 12.2914 9.26628L12.2051 9.25003L11.0776 10.3775L11.2826 10.4638C11.7439 10.6688 12.2401 10.7713 12.7176 10.7713C13.6064 10.7713 14.4614 10.4288 15.1114 9.78003L16.3251 8.56628C17.6926 7.23378 17.6926 5.04502 16.3414 3.71252V3.71002Z" fill="#00AC47"/>
<path d="M7.45361 11.8462C7.45361 12.0349 7.53986 12.2049 7.67611 12.3412C7.82986 12.4949 8.01861 12.5637 8.18861 12.5637C8.37736 12.5637 8.56486 12.4962 8.71861 12.3412L12.3774 8.68245C12.5149 8.54495 12.5999 8.35745 12.5999 8.15245C12.5999 7.9637 12.5136 7.7762 12.3774 7.63995C12.0861 7.3487 11.6261 7.3487 11.3349 7.63995L7.67611 11.2987C7.52236 11.4362 7.45361 11.6412 7.45361 11.8449V11.8462Z" fill="#00AC47"/>
</svg>
