<svg width="41" height="41" viewBox="0 0 41 41" fill="none" xmlns="http://www.w3.org/2000/svg">
<path d="M38.9733 3.04712H30.4497V4.15006H38.9733C39.3995 4.15006 39.7648 4.59124 39.7648 5.10594V30.1059H1.71305V5.10594C1.71305 4.59124 2.07834 4.15006 2.44364 4.15006H14.9246V3.04712H2.44364C1.5304 3.04712 0.799805 4.003 0.799805 5.10594V32.6059C0.799805 33.7089 1.5304 34.6648 2.50452 34.6648H15.0464V39.2971H12.7937V40.4001H28.8059V39.2971H26.5532V34.6648H39.0951C40.0083 34.6648 40.7998 33.7824 40.7998 32.6059V5.10594C40.678 4.003 39.8866 3.04712 38.9733 3.04712ZM25.5182 39.2236H15.8987V34.5912H25.5182V39.2236V39.2236ZM38.9733 33.4883H2.44364C2.01746 33.4883 1.71305 33.0471 1.71305 32.5324V31.1354H39.7648V32.5324C39.7648 33.1206 39.3995 33.4883 38.9733 33.4883Z" fill="black"/>
<path d="M31.5454 22.0177V24.7383C31.5454 26.7971 32.9457 28.4148 34.5896 28.4148C36.2943 28.4148 37.6337 26.7236 37.6337 24.7383V22.0177C37.6337 20.253 36.5987 18.7824 35.1984 18.4148C35.8072 16.2824 35.4419 15.6207 34.8331 14.8118C34.4678 14.3707 34.1025 13.856 34.1025 12.3854H33.1892C33.1892 14.2971 33.7372 15.0324 34.1634 15.5471C34.5895 16.0618 34.8331 16.4295 34.2243 18.3413C32.7631 18.5618 31.5454 20.106 31.5454 22.0177ZM36.7204 22.0177V24.7383C36.7204 26.1354 35.7463 27.3118 34.5896 27.3118C33.4328 27.3118 32.4587 26.1354 32.4587 24.7383V22.0177C32.4587 20.6207 33.4328 19.4442 34.5896 19.4442C35.7463 19.4442 36.7204 20.6207 36.7204 22.0177Z" fill="black"/>
<path d="M35.0768 20.6941H34.1636V22.0176H35.0768V20.6941Z" fill="black"/>
<path d="M13.5854 26.1353L16.386 23.1206L13.5854 20.1794L12.9766 20.9883L14.9857 23.1206L12.9766 25.253L13.5854 26.1353Z" fill="black"/>
<path d="M6.70555 20.1794L3.96582 23.1206L6.70555 26.1353L7.31437 25.253L5.30524 23.1206L7.31437 20.9883L6.70555 20.1794Z" fill="black"/>
<path d="M8.50828 28.4232L12.6367 18.3387L11.8181 17.8499L7.68965 27.9344L8.50828 28.4232Z" fill="black"/>
<path d="M16.2034 8.12061L14.5596 8.48826V11.8706L16.2034 12.2383C16.3861 12.9736 16.5687 13.6353 16.8731 14.2236L15.899 15.9147L17.9081 18.2677L19.3084 17.0912C19.8564 17.4588 20.4043 17.753 20.9523 17.9L21.2567 19.8853H24.0573L24.3617 17.9C24.9705 17.6794 25.5185 17.4588 26.0055 17.0912L27.4058 18.2677L29.3541 15.8412L28.38 14.15C28.6844 13.5618 28.9279 12.8265 29.0497 12.1647L30.6935 11.7971V8.41473L29.0497 8.04708C28.867 7.31179 28.6844 6.65002 28.38 6.06179L29.3541 4.37061L27.345 2.01767L25.9447 3.19414C25.3967 2.82649 24.8488 2.53238 24.3008 2.38532L23.9964 0.400024H21.1958L20.8914 2.38532C20.3434 2.60591 19.7346 2.82649 19.2475 3.19414L17.8472 2.01767L15.899 4.44414L16.8731 6.13532C16.5687 6.72355 16.3252 7.45885 16.2034 8.12061ZM16.9949 8.70885C17.1166 7.90003 17.4211 7.0912 17.7864 6.42944L17.969 6.13532L17.1166 4.5912L17.969 3.48826L19.2475 4.51767L19.4911 4.29708C20.0999 3.85591 20.7087 3.48826 21.3784 3.3412L21.6829 3.26767L21.9264 1.42944H23.2049L23.5093 3.26767L23.8138 3.3412C24.4835 3.48826 25.1532 3.85591 25.762 4.29708L26.0055 4.51767L27.2841 3.48826L28.1973 4.5912L27.345 6.13532L27.5276 6.42944C27.8929 7.16473 28.1973 7.90003 28.3191 8.70885L28.38 9.0765L29.902 9.37061V10.9147L28.38 11.2824L28.3191 11.5765C28.1973 12.3853 27.8929 13.1941 27.5276 13.9294L27.345 14.2236L28.1973 15.7677L27.2841 16.8706L26.0055 15.8412L25.762 16.0618C25.2141 16.503 24.5444 16.8706 23.8746 17.0177H23.5702L23.3267 18.8559H22.0482L21.7437 17.0177L21.4393 16.9441C20.7696 16.7971 20.0999 16.4294 19.552 15.9883L19.3084 15.7677L18.0299 16.7971L17.1166 15.6941L17.969 14.15L17.7864 13.8559C17.4211 13.1206 17.1166 12.3853 16.9949 11.5765L16.934 11.2088L15.4119 10.9147V9.37061L16.934 9.00297L16.9949 8.70885Z" fill="black"/>
<path d="M22.6569 14.5912C24.666 14.5912 26.3098 12.6059 26.3098 10.1795C26.3098 7.753 24.666 5.7677 22.6569 5.7677C20.6477 5.7677 19.0039 7.753 19.0039 10.1795C19.0039 12.6059 20.6477 14.5912 22.6569 14.5912ZM22.6569 6.87064C24.1789 6.87064 25.3966 8.34123 25.3966 10.1795C25.3966 12.0177 24.1789 13.4883 22.6569 13.4883C21.1348 13.4883 19.9171 12.0177 19.9171 10.1795C19.9171 8.34123 21.1348 6.87064 22.6569 6.87064Z" fill="black"/>
</svg>
