<svg width="40" height="40" viewBox="0 0 40 40" fill="none" xmlns="http://www.w3.org/2000/svg">
<path d="M36.6667 0H7.33333C5.49533 0 4 1.49533 4 3.33333V16.6667H2C0.897333 16.6667 0 17.564 0 18.6667V38C0 39.1027 0.897333 40 2 40H16C17.1027 40 18 39.1027 18 38V34H20V38C20 39.1027 20.8973 40 22 40H38C39.1027 40 40 39.1027 40 38V30.6667C40 29.564 39.1027 28.6667 38 28.6667H29.814L28.9253 26H36.6667C38.5047 26 40 24.5047 40 22.6667V3.33333C40 1.49533 38.5047 0 36.6667 0ZM16.6667 38C16.6667 38.368 16.3673 38.6667 16 38.6667H2C1.63267 38.6667 1.33333 38.368 1.33333 38V36.6667H16.6667V38ZM16.6667 35.3333H1.33333V21.3333H16.6667V35.3333ZM16.6667 20H1.33333V18.6667C1.33333 18.2987 1.63267 18 2 18H16C16.3673 18 16.6667 18.2987 16.6667 18.6667V20ZM20 32.6667H18V31.3333H20V32.6667ZM20.1227 30H18V26H27.5193L28.408 28.6667H22C21.132 28.6667 20.3987 29.226 20.1227 30ZM22.6667 38.6667H22C21.6327 38.6667 21.3333 38.368 21.3333 38V30.6667C21.3333 30.2987 21.6327 30 22 30H22.6667V38.6667ZM37.3333 30H38C38.3673 30 38.6667 30.2987 38.6667 30.6667V38C38.6667 38.368 38.3673 38.6667 38 38.6667H37.3333V30ZM36 30V38.6667H24V30H36ZM38.6667 22.6667C38.6667 23.7693 37.7693 24.6667 36.6667 24.6667H18V21.3333H38.6667V22.6667ZM38.6667 20H18V18.6667C18 17.564 17.1027 16.6667 16 16.6667H5.33333V3.33333C5.33333 2.23067 6.23067 1.33333 7.33333 1.33333H36.6667C37.7693 1.33333 38.6667 2.23067 38.6667 3.33333V20Z" fill="black"/>
<path d="M37.3333 17.3334H36V18.6667H37.3333V17.3334Z" fill="black"/>
<path d="M34.6668 17.3334H33.3335V18.6667H34.6668V17.3334Z" fill="black"/>
<path d="M31.9998 17.3334H30.6665V18.6667H31.9998V17.3334Z" fill="black"/>
</svg>
