<svg width="40" height="41" viewBox="0 0 40 41" fill="none" xmlns="http://www.w3.org/2000/svg">
<path d="M0 0.800049V32.4127H6.65217C6.8913 32.4127 7.08696 32.1943 7.08696 31.9273C7.08696 31.6604 6.8913 31.442 6.65217 31.442H0.869565V6.34792H39.1304V31.4371H33.0304C32.7913 31.4371 32.5957 31.6555 32.5957 31.9225C32.5957 32.1894 32.7913 32.4079 33.0304 32.4079H40V0.800049H0ZM0.869565 5.37716V1.7708H39.1304V5.38202H0.869565V5.37716Z" fill="black"/>
<path d="M7.43466 2.89685H7.19552C6.95639 2.89685 6.76074 3.11527 6.76074 3.38223C6.76074 3.64919 6.95639 3.86761 7.19552 3.86761H7.43466C7.67379 3.86761 7.86944 3.64919 7.86944 3.38223C7.86944 3.11527 7.67379 2.89685 7.43466 2.89685Z" fill="black"/>
<path d="M5.26083 2.89685H5.0217C4.78257 2.89685 4.58691 3.11527 4.58691 3.38223C4.58691 3.64919 4.78257 3.86761 5.0217 3.86761H5.26083C5.49996 3.86761 5.69561 3.64919 5.69561 3.38223C5.69561 3.11527 5.49996 2.89685 5.26083 2.89685Z" fill="black"/>
<path d="M3.087 2.89685H2.84787C2.60874 2.89685 2.41309 3.11527 2.41309 3.38223C2.41309 3.64919 2.60874 3.86761 2.84787 3.86761H3.087C3.32613 3.86761 3.52178 3.64919 3.52178 3.38223C3.52178 3.11527 3.32613 2.89685 3.087 2.89685Z" fill="black"/>
<path d="M30.6651 29.3354C30.4955 28.9811 30.6042 28.5394 30.9042 28.3307L32.7651 27.0347C33.2216 26.7144 33.4955 26.1659 33.4955 25.564C33.4955 24.9621 33.2216 24.4137 32.7651 24.0933L30.9042 22.7974C30.5998 22.5838 30.4955 22.147 30.6651 21.7926L31.6998 19.6278C31.952 19.0939 31.9433 18.4678 31.6738 17.9484C31.4042 17.4291 30.9216 17.1039 30.3825 17.0845L28.1868 17.002C27.8303 16.9874 27.539 16.667 27.5259 16.2642L27.452 13.813C27.4346 13.2111 27.1433 12.6724 26.6781 12.3714C26.2129 12.0705 25.6477 12.0608 25.1738 12.3423L23.2346 13.4927C22.9172 13.682 22.5216 13.5606 22.3346 13.2209L21.1738 11.1434C20.8868 10.6338 20.3955 10.328 19.8564 10.328C19.3172 10.328 18.8259 10.6338 18.539 11.1434L17.3781 13.2209C17.1868 13.5606 16.7912 13.6771 16.4781 13.4927L14.539 12.3423C14.0651 12.0608 13.4998 12.0705 13.0346 12.3714C12.5651 12.6724 12.2781 13.2111 12.2607 13.813L12.1868 16.2642C12.1738 16.6622 11.8868 16.9874 11.5259 17.002L9.33028 17.0845C8.79115 17.1039 8.30854 17.4291 8.03898 17.9484C7.76941 18.4678 7.76072 19.0988 8.01289 19.6278L9.04332 21.7926C9.21289 22.147 9.10419 22.5887 8.80419 22.7974L6.94332 24.0933C6.4868 24.4137 6.21289 24.9621 6.21289 25.564C6.21289 26.1659 6.4868 26.7144 6.94332 27.0347L8.80419 28.3307C9.10854 28.5442 9.21289 28.9811 9.04332 29.3354L8.01289 31.5002C7.76072 32.0341 7.76941 32.6602 8.03898 33.1796C8.30854 33.699 8.79115 34.0242 9.33028 34.0436L11.5259 34.1261C11.8825 34.1406 12.1738 34.461 12.1868 34.8639L12.2607 37.315C12.2781 37.9169 12.5694 38.4557 13.0346 38.7566C13.4998 39.0575 14.0651 39.0672 14.539 38.7857L16.4781 37.6354C16.7912 37.4461 17.1868 37.5674 17.3781 37.9072L18.539 39.9846C18.8259 40.4942 19.3172 40.8 19.8564 40.8C20.3955 40.8 20.8868 40.4942 21.1738 39.9846L22.3346 37.9072C22.5216 37.5674 22.9216 37.4509 23.2346 37.6354L25.1738 38.7857C25.652 39.0672 26.2129 39.0575 26.6781 38.7566C27.1477 38.4557 27.4346 37.9169 27.452 37.315L27.5259 34.8639C27.539 34.4659 27.8259 34.1406 28.1868 34.1261L30.3825 34.0436C30.9216 34.0242 31.4042 33.699 31.6738 33.1796C31.9433 32.6602 31.952 32.0293 31.6998 31.4953L30.6651 29.3354ZM30.9172 32.6942C30.7955 32.9272 30.5912 33.068 30.3477 33.0728L28.152 33.1553C27.339 33.1845 26.6825 33.9222 26.652 34.8299L26.5781 37.281C26.5694 37.548 26.4477 37.781 26.2346 37.9169C26.0259 38.0528 25.7868 38.0576 25.5738 37.9315L23.6346 36.7762C22.9172 36.3491 22.0172 36.6209 21.5868 37.3878L20.4346 39.4701C20.3085 39.6982 20.0955 39.8293 19.8564 39.8293C19.6172 39.8293 19.4042 39.6982 19.2781 39.4701L18.1172 37.3927C17.8259 36.8685 17.3172 36.5772 16.7955 36.5772C16.5477 36.5772 16.2998 36.6403 16.0694 36.7811L14.1303 37.9315C13.9172 38.0576 13.6781 38.0528 13.4694 37.9169C13.2607 37.781 13.1346 37.5529 13.1259 37.281L13.052 34.8299C13.0259 33.9222 12.3651 33.1893 11.552 33.1553L9.35637 33.0728C9.11724 33.0631 8.90854 32.9272 8.7868 32.6942C8.66506 32.4612 8.66072 32.1894 8.77376 31.9564L9.80419 29.7917C10.1868 28.9908 9.94767 27.9861 9.25637 27.5055L7.3955 26.2096C7.19115 26.0688 7.07376 25.831 7.07376 25.564C7.07376 25.2971 7.19115 25.0592 7.3955 24.9185L9.25637 23.6225C9.94767 23.142 10.1868 22.1372 9.80419 21.3364L8.77376 19.1716C8.66072 18.9338 8.66506 18.6668 8.7868 18.4338C8.90854 18.2008 9.11289 18.0601 9.35637 18.0552L11.552 17.9727C12.3651 17.9436 13.0216 17.2058 13.052 16.2982L13.1259 13.847C13.1346 13.58 13.2607 13.3471 13.4694 13.2111C13.6781 13.0752 13.9172 13.0704 14.1303 13.1966L16.0694 14.3469C16.7825 14.7741 17.6868 14.5071 18.1172 13.7354L19.2781 11.6579C19.4042 11.4298 19.6172 11.2988 19.8564 11.2988C20.0955 11.2988 20.3042 11.4298 20.4346 11.6579L21.5955 13.7354C22.0259 14.5071 22.9259 14.7741 23.6433 14.3469L25.5825 13.1966C25.7955 13.0704 26.0346 13.0752 26.2433 13.2111C26.452 13.3471 26.5738 13.5752 26.5825 13.847L26.6564 16.2982C26.6825 17.2058 27.3433 17.9387 28.1564 17.9727L30.352 18.0552C30.5911 18.0649 30.7998 18.2008 30.9216 18.4338C31.0433 18.6668 31.0477 18.9386 30.9346 19.1716L29.8998 21.3364C29.5172 22.1372 29.7564 23.142 30.4477 23.6225L32.3085 24.9185C32.5129 25.0592 32.6303 25.2971 32.6303 25.564C32.6303 25.831 32.5129 26.0688 32.3085 26.2096L30.4477 27.5055C29.7564 27.9861 29.5172 28.9908 29.8998 29.7917L30.9346 31.9564C31.0433 32.1943 31.039 32.4612 30.9172 32.6942Z" fill="black"/>
<path d="M19.852 17.0845C15.665 17.0845 12.2563 20.8898 12.2563 25.564C12.2563 30.2382 15.6607 34.0436 19.852 34.0436C24.0433 34.0436 27.4477 30.2382 27.4477 25.564C27.4477 20.8898 24.039 17.0845 19.852 17.0845ZM13.1303 25.564C13.1303 21.4238 16.1477 18.0552 19.8563 18.0552C23.565 18.0552 26.5824 21.4238 26.5824 25.564C26.5824 29.7043 23.565 33.0728 19.8563 33.0728C16.1477 33.0728 13.1303 29.7043 13.1303 25.564Z" fill="black"/>
</svg>
